<?xml version="1.0" standalone="no"?>
<!DOCTYPE svg PUBLIC "-//W3C//DTD SVG 20010904//EN"
 "http://www.w3.org/TR/2001/REC-SVG-20010904/DTD/svg10.dtd">
<svg version="1.0" xmlns="http://www.w3.org/2000/svg"
 width="300.000000pt" height="300.000000pt" viewBox="0 0 300.000000 300.000000"
 preserveAspectRatio="xMidYMid meet">
<metadata>
Created by potrace 1.14, written by Peter Selinger 2001-2017
</metadata>
<g transform="translate(0.000000,300.000000) scale(0.100000,-0.100000)"
fill="#000000" stroke="none">
<path d="M1482 2470 c-48 -50 -101 -105 -118 -123 -38 -39 -89 -78 -123 -94
-34 -16 -53 -32 -74 -65 -20 -32 -50 -50 -69 -43 -13 5 -52 78 -53 99 -2 26
-19 45 -45 51 -16 4 -41 22 -57 43 -55 71 -68 81 -107 78 -32 -3 -73 -29 -106
-67 -3 -3 -15 -11 -27 -17 -12 -7 -47 -54 -78 -106 -31 -52 -63 -100 -71 -107
-12 -10 -15 -32 -13 -103 7 -212 95 -436 238 -605 30 -36 67 -76 81 -87 14
-12 35 -30 47 -40 48 -42 63 -54 68 -54 2 0 30 -15 62 -34 71 -41 166 -79 258
-102 99 -24 295 -26 406 -3 98 19 250 82 339 140 70 45 201 172 252 244 98
139 166 318 184 490 6 48 3 60 -25 108 -17 30 -31 63 -31 74 0 30 -35 70 -67
76 -16 3 -46 19 -67 36 -21 17 -45 31 -53 31 -16 0 -73 -56 -73 -70 0 -5 -12
-22 -28 -39 l-27 -31 -30 19 c-36 22 -105 91 -105 106 0 15 -56 75 -72 76 -7
1 -21 0 -31 -1 -26 -2 -55 26 -82 80 -15 30 -30 46 -44 47 -11 1 -43 20 -71
42 -29 23 -63 41 -76 41 -18 0 -49 -25 -112 -90z"/>
<path d="M13 693 c-26 -9 -1 -32 31 -28 l33 4 1 -91 c1 -51 7 -97 12 -102 19
-19 25 8 24 101 l0 90 25 -2 c34 -2 51 4 51 19 0 8 -26 12 -82 13 -46 0 -88
-2 -95 -4z"/>
<path d="M259 673 c0 -15 -1 -65 -2 -110 -1 -58 2 -84 10 -87 18 -7 27 13 24
56 -2 40 -1 40 54 40 64 0 62 1 60 -47 -2 -48 3 -58 22 -47 12 8 16 47 14 155
-1 50 -4 67 -15 67 -17 0 -22 -15 -21 -57 1 -18 -1 -33 -4 -34 -23 -4 -88 -5
-99 -1 -9 3 -12 19 -10 46 2 32 -1 42 -15 44 -13 3 -17 -4 -18 -25z"/>
<path d="M530 586 l0 -111 75 0 c64 0 75 3 75 17 0 13 -9 17 -42 16 -72 -1
-74 0 -73 32 0 32 2 32 73 33 17 0 32 4 32 8 0 15 -25 24 -64 24 -38 0 -40 2
-40 30 0 29 2 30 44 31 68 3 70 3 70 17 0 11 -19 14 -75 14 l-75 -1 0 -110z"/>
<path d="M862 645 c12 -27 28 -68 37 -90 40 -98 58 -103 86 -27 l18 46 25 -52
c13 -28 29 -50 35 -49 6 1 26 38 45 82 18 44 39 93 47 110 16 34 14 39 -12 31
-16 -5 -47 -70 -68 -143 -9 -33 -20 -28 -34 15 -10 31 -10 43 3 74 20 46 20
55 1 55 -9 0 -19 -14 -23 -31 -9 -33 -25 -38 -31 -9 -4 22 -20 43 -32 43 -14
0 -11 -28 6 -61 13 -23 14 -37 5 -69 -6 -22 -15 -40 -19 -40 -5 0 -23 38 -40
84 -25 66 -36 84 -51 83 -17 -1 -17 -3 2 -52z"/>
<path d="M1244 692 c-12 -8 -14 -212 -1 -212 4 0 12 0 17 0 6 0 10 43 10 110
0 107 -3 118 -26 102z"/>
<path d="M1365 690 c-5 -8 -9 -161 -6 -205 1 -6 30 -10 74 -9 92 3 87 2 81 18
-4 11 -21 14 -62 13 l-57 -2 0 98 c0 69 -3 97 -12 97 -6 0 -15 -5 -18 -10z"/>
<path d="M1582 587 l3 -111 48 -1 c53 -1 103 18 117 46 19 34 21 87 6 117 -23
45 -40 53 -111 57 l-66 3 3 -111z m129 57 c24 -22 25 -84 2 -112 -22 -25 -93
-37 -94 -16 0 8 -1 43 -1 79 0 36 1 67 1 69 3 10 76 -5 92 -20z"/>
<path d="M2008 684 c-34 -18 -58 -62 -58 -107 0 -40 45 -96 79 -98 12 -1 27
-2 34 -3 20 -4 63 22 78 46 30 48 18 121 -25 157 -23 19 -77 21 -108 5z m98
-47 c26 -30 24 -82 -5 -111 -46 -45 -125 0 -114 66 11 72 75 96 119 45z"/>
<path d="M2282 663 c-11 -21 -25 -55 -32 -76 -7 -22 -18 -51 -26 -65 -18 -36
-18 -51 2 -48 9 1 22 16 29 32 10 25 17 29 54 30 38 0 44 -3 53 -27 9 -27 33
-45 42 -31 8 13 -78 222 -91 222 -7 0 -21 -17 -31 -37z m44 -48 c20 -48 18
-55 -16 -55 -16 0 -30 3 -30 6 0 12 23 84 27 84 2 0 11 -16 19 -35z"/>
<path d="M2510 689 c-31 -13 -40 -26 -40 -61 0 -20 8 -31 30 -43 16 -8 35 -15
42 -15 8 0 24 -7 36 -16 22 -15 22 -17 7 -35 -18 -19 -66 -17 -93 4 -10 8 -16
7 -23 -4 -10 -17 14 -38 45 -41 12 0 28 -2 36 -3 33 -3 70 18 76 42 10 40 -9
67 -59 81 -26 8 -51 19 -56 26 -23 28 33 55 71 35 23 -12 49 4 33 20 -16 15
-78 21 -105 10z"/>
<path d="M2709 665 c-4 -141 0 -192 16 -192 17 0 17 1 17 112 0 114 0 115 -17
115 -10 0 -15 -11 -16 -35z"/>
<path d="M2873 693 c-27 -5 -40 -21 -47 -55 -6 -33 15 -52 72 -68 48 -12 64
-36 38 -56 -19 -13 -62 -9 -83 7 -13 11 -33 4 -33 -11 0 -17 55 -37 93 -35 45
4 77 29 77 61 0 31 -21 49 -74 65 -25 7 -48 20 -51 28 -8 20 20 40 48 36 12
-2 31 -5 41 -7 32 -5 29 19 -5 31 -33 11 -38 11 -76 4z"/>
</g>
</svg>
